<svg xmlns="http://www.w3.org/2000/svg" xmlns:xlink="http://www.w3.org/1999/xlink" viewBox="0 0 117.33 117.04"><defs><style>.cls-1{fill:#a7182d;}.cls-2{fill:#e23639;}.cls-3{fill:#e9f2f4;}.cls-4{fill:url(#Degradado_sin_nombre_21);}.cls-5{fill:#4ec2f1;}.cls-6{fill:#fff;}.cls-7{fill:url(#Degradado_sin_nombre_38);}.cls-8{fill:#ec614d;}.cls-9{fill:url(#Degradado_sin_nombre_44);}.cls-10{fill:#feca1a;}.cls-11{fill:url(#Degradado_sin_nombre_29);}.cls-12{fill:#81bd52;}.cls-13{fill:#c62d34;}</style><linearGradient id="Degradado_sin_nombre_21" x1="39.78" y1="61.21" x2="39.78" y2="21.13" gradientUnits="userSpaceOnUse"><stop offset="0" stop-color="#2f76bb"/><stop offset="1" stop-color="#6cc8ec"/></linearGradient><linearGradient id="Degradado_sin_nombre_38" x1="76.03" y1="30.02" x2="76.03" y2="19.81" gradientUnits="userSpaceOnUse"><stop offset="0" stop-color="#a12b1f"/><stop offset="1" stop-color="#eb5c4f"/></linearGradient><linearGradient id="Degradado_sin_nombre_44" x1="88.37" y1="30.02" x2="88.37" y2="19.81" gradientUnits="userSpaceOnUse"><stop offset="0" stop-color="#f59915"/><stop offset="1" stop-color="#fed660"/></linearGradient><linearGradient id="Degradado_sin_nombre_29" x1="100.88" y1="30.02" x2="100.88" y2="19.81" gradientUnits="userSpaceOnUse"><stop offset="0" stop-color="#618a2e"/><stop offset="1" stop-color="#93c56d"/></linearGradient></defs><g id="Capa_2" data-name="Capa 2"><g id="Capa_1-2" data-name="Capa 1"><rect class="cls-1" y="3" width="114.04" height="114.04" rx="22.64"/><path class="cls-2" d="M117.33,22.64V91.41A22.64,22.64,0,0,1,94.69,114H25.92A22.61,22.61,0,0,1,3.3,91.68a2.44,2.44,0,0,1,0-.27V22.64A22.64,22.64,0,0,1,25.92,0H94.69A22.64,22.64,0,0,1,117.33,22.64Z"/><circle class="cls-3" cx="39.78" cy="41.17" r="25.15"/><circle class="cls-4" cx="39.78" cy="41.17" r="20.04"/><circle class="cls-5" cx="39.78" cy="41.17" r="16.6"/><circle class="cls-6" cx="33.78" cy="32.81" r="3.83"/><circle class="cls-7" cx="76.03" cy="24.92" r="5.11"/><circle class="cls-8" cx="76.03" cy="24.92" r="4.07"/><circle class="cls-6" cx="75.03" cy="22.48" r="0.78"/><circle class="cls-9" cx="88.37" cy="24.92" r="5.11"/><circle class="cls-10" cx="88.37" cy="24.92" r="4.07"/><circle class="cls-6" cx="87.37" cy="22.48" r="0.78"/><circle class="cls-11" cx="100.88" cy="24.92" r="5.11"/><circle class="cls-12" cx="100.88" cy="24.92" r="4.07"/><circle class="cls-6" cx="99.88" cy="22.48" r="0.78"/><path class="cls-13" d="M117,66H89.83a10.15,10.15,0,0,0-7.2,3L73,78.64a12.53,12.53,0,0,1-8.88,3.68H3v9.09a2.44,2.44,0,0,0,0,.27H69.52a10.44,10.44,0,0,0,7.38-3.05l9.53-9.54a10.22,10.22,0,0,1,7.21-3H117Z"/></g></g></svg>