<svg width="25" height="25" viewBox="0 0 25 25" fill="none" xmlns="http://www.w3.org/2000/svg">
<path d="M19.4038 17.8776C18.9354 17.429 18.4796 16.9675 18.0368 16.4936C17.6648 16.1156 17.4408 15.8406 17.4408 15.8406L14.6408 14.5036C15.7618 13.2323 16.3805 11.5956 16.3808 9.90063C16.3808 6.04163 13.2408 2.90063 9.3808 2.90063C5.5208 2.90063 2.3808 6.04163 2.3808 9.90063C2.3808 13.7596 5.5208 16.9006 9.3808 16.9006C11.1438 16.9006 12.7508 16.2406 13.9838 15.1616L15.3208 17.9616C15.3208 17.9616 15.5958 18.1856 15.9738 18.5576C16.3608 18.9206 16.8698 19.4116 17.3578 19.9246L18.7158 21.3166L19.3198 21.9626L21.4408 19.8416L20.7948 19.2376C20.4158 18.8656 19.9098 18.3716 19.4038 17.8776V17.8776ZM9.3808 14.9006C6.6238 14.9006 4.3808 12.6576 4.3808 9.90063C4.3808 7.14363 6.6238 4.90063 9.3808 4.90063C12.1378 4.90063 14.3808 7.14363 14.3808 9.90063C14.3808 12.6576 12.1378 14.9006 9.3808 14.9006Z" fill="black"/>
</svg>
